<svg width="509" height="581" viewBox="0 0 509 581" fill="none" xmlns="http://www.w3.org/2000/svg">
<rect width="508.257" height="580.866" rx="25" fill="#F2F4F6"/>
<g clip-path="url(#clip0)">
<path d="M222.315 69.0103C238.109 72.3193 268.893 97.0315 269.922 109.306C270.952 121.581 259.602 142.054 259.602 142.054L253.32 146.062C253.756 150.7 254.596 157.118 256.744 163.873C258.982 170.9 264.392 177.944 267.417 181.52L272.181 262.632C268.268 264.576 230.866 254.113 227.977 254.071C226.811 254.055 205.166 260.878 203.129 259.512L202.209 182.319C205.088 178.254 209.284 171.573 210.934 165.165C213.549 154.991 213.518 141.718 213.518 141.718L222.788 139.891L222.741 138.089L187.377 130.925C187.377 130.925 184.961 108.629 187.377 97.4675C189.793 86.301 206.516 65.7014 222.315 69.0103ZM355.777 566.642H277.46V469.385H355.777V566.642ZM121.849 450.75V538.884H163.048V450.75H121.849Z" fill="#DE5834"/>
<path d="M131.749 466.375L144.933 469.385L142.874 517.727L142.527 525.895C161.567 533.059 182.293 541.4 207.026 545.481L221.029 504.423L230.919 547.891C254.58 548.753 278.205 545.549 297.649 541.547C299.808 533.243 303.054 517.617 303.054 517.617C303.054 517.617 293.311 527.728 288.778 522.297C288.778 522.297 293.831 512.538 296.93 508.284C299.53 504.717 308.527 491.408 311.374 487.185L311.81 483.634L340.036 489.013L341.559 489.302L346.223 490.189L350.593 491.024C350.593 491.024 382.044 405.012 384.644 387.317C387.249 369.622 380.573 339.684 380.573 339.684C380.573 339.679 379.691 321.164 371.497 277.838C363.309 234.511 360.494 229.269 342.084 214.831C323.675 200.397 267.417 181.52 267.417 181.52L229.322 272.738L202.209 182.319C202.209 182.319 178.894 192.508 165.165 200.418C150.905 208.633 141.004 221.753 136.97 244.659C130.442 281.719 127.548 465.419 127.548 465.419L131.749 466.375Z" fill="#D6EAF2"/>
<path d="M167.996 287.964L207.845 290.601C207.845 290.601 186.037 306.295 167.996 287.964ZM143.073 409.293C143.241 402.176 144.875 380.883 145.489 376.398C146.298 370.499 149.849 341.107 149.849 338.155C149.849 335.209 151.755 332.304 151.755 332.304C151.755 332.304 151.755 358.802 151.755 377.543C151.755 396.278 144.933 469.385 144.933 469.385L141.23 468.539C141.23 468.539 142.911 416.405 143.073 409.293ZM241.145 424.073C248.645 425.349 282.707 411.825 292.807 418.138C299.866 422.55 305.565 426.074 303.91 438.265C302.266 450.45 293.101 450.046 283.095 454.053C267.543 460.283 256.083 465.519 253.483 472.284C250.877 479.054 269.618 472.284 274.823 484.779C279.865 496.886 278.552 536.41 259.985 547.109C273.42 545.969 286.257 543.894 297.649 541.552C299.808 533.248 303.054 517.617 303.054 517.617C303.054 517.617 293.311 527.728 288.778 522.297C288.778 522.297 293.831 512.538 296.93 508.284C299.53 504.717 308.527 491.408 311.374 487.185L311.81 483.634L324.799 386.976C326.863 385.684 329.079 384.828 331.327 384.828C340.435 384.828 352.148 385.211 357.347 388.924C362.552 392.633 373.225 402.003 372.443 397.838C371.665 393.678 364.638 384.308 360.473 381.445C356.307 378.583 365.678 378.32 370.363 378.845C375.048 379.365 370.883 372.595 360.993 371.555C352.836 370.699 337.404 368.619 325.755 373.315L326.348 364.779L311.81 311.295C311.81 311.295 301.079 339.243 296.914 345.309C282.05 366.959 261.204 365.137 261.582 373.976C261.955 382.816 298.175 371.613 296.068 384.245C293.968 396.871 278.626 402.617 260.479 408.09C242.332 413.563 233.639 422.797 241.145 424.073Z" fill="#A7BCDC"/>
<path d="M60.8176 395.185C61.679 414.446 69.1793 433.354 81.7692 447.961C82.2261 448.491 83.7283 450.13 84.1958 450.65C91.486 458.733 87.6728 441.012 94.3485 449.62C94.5113 449.83 88.8073 434.047 88.9701 434.263C75.209 395.395 83.8649 410.832 82.7198 381.697C81.0916 340.094 71.9683 331.79 71.8265 331.721L72.1154 331.112L72.399 330.503C73.0083 330.792 91.3809 337.893 93.0512 380.479C94.233 410.643 89.6477 411.205 104.753 452.656C105.31 453.528 106.235 456.012 106.749 456.905C104.107 433.097 105.153 429.404 105.368 417.928C105.51 410.254 104.38 392.517 104.848 387.302C107.821 354.102 96.9116 312.193 113.761 287.691C107.401 314.809 123.919 341.717 126.85 369.412C127.911 379.47 127.165 389.628 127.37 399.739C127.417 402.297 127.869 406.987 128.615 413.232C127.895 443.475 127.548 465.419 127.548 465.419L131.75 466.375C131.661 472.589 131.777 488.067 134.839 497.049C136.945 503.215 139.056 511.692 142.875 517.727L142.528 525.895C143.584 526.294 148.537 528.169 149.603 528.568C151.935 542.865 152.208 552.24 153.075 564.3L154.288 580.719H153.028C153.112 581.16 142.969 580.719 142.969 580.719L132.092 581.013L93.7813 580.719C96.1658 558.617 96.0818 543.269 88.4711 522.386C84.2115 510.71 77.0736 500.347 71.2225 489.386C55.8962 460.671 49.6039 425.743 60.8176 395.185ZM200.624 180.286C202.242 179.22 204.154 179.451 204.154 179.451C204.154 179.451 202.788 181.935 202.242 182.303C202.231 182.308 202.221 182.314 202.21 182.319L231.723 194.951L267.418 181.521L229.323 272.738L210.472 209.873L202.21 182.324C184.951 193.906 187.068 213.013 187.084 213.213L191.438 237.626L188.344 238.083L184.405 213.444C184.389 213.224 181.852 192.645 200.624 180.286ZM265.138 178.7C265.138 178.7 267.418 178.437 269.036 179.504C284.814 189.893 285.533 206.091 285.355 211.123L286.164 211.259C302.735 214.132 305.256 234.753 302.083 253.099C298.974 271.083 290.681 275.936 290.329 276.136L288.784 273.415C288.853 273.373 296.174 268.925 299 252.569C301.915 235.714 299.93 216.821 285.628 214.342L281.032 213.549C274.514 212.42 268.862 215.177 264.235 221.738C260.306 227.31 257.244 235.593 255.606 245.058C252.78 261.414 258.179 268.063 258.226 268.116L255.863 270.169C255.6 269.865 249.413 262.506 252.522 244.522C254.24 234.611 257.491 225.876 261.677 219.936C266.987 212.409 273.868 209.132 281.568 210.466L282.655 210.655C282.723 205.629 281.62 191.032 267.418 181.521C266.872 181.153 265.138 178.7 265.138 178.7ZM214.049 58.0645C232.096 60.1445 256.84 62.2296 270.664 87.2097C284.488 112.195 283.968 126.077 278.506 133.709C275.071 138.509 264.046 144.738 253.321 146.062C253.252 145.411 253.189 144.801 253.137 144.245C253.137 144.245 254.923 129.391 253.893 117.116C252.864 104.842 237.259 90.0932 221.465 86.7843C205.672 83.4753 192.052 91.7845 189.636 102.946C188.328 108.991 187.777 116.686 187.541 122.474C183.643 121.418 173.386 117.6 173.107 106.643C172.761 93.1081 177.309 93.46 182.146 80.2714C186.984 67.088 196.007 55.9846 214.049 58.0645ZM224.296 465.419C227.117 465.419 229.407 467.704 229.407 470.525C229.407 473.345 227.117 475.635 224.296 475.635C221.476 475.635 219.186 473.345 219.186 470.525C219.186 467.704 221.476 465.419 224.296 465.419ZM226.245 318.969C223.419 318.969 221.134 316.679 221.134 313.858C221.134 311.038 223.419 308.748 226.245 308.748C229.065 308.748 231.35 311.038 231.35 313.858C231.35 316.679 229.065 318.969 226.245 318.969ZM225.268 397.302C222.448 397.302 220.163 395.012 220.163 392.191C220.163 389.371 222.448 387.081 225.268 387.081C228.094 387.081 230.379 389.371 230.379 392.191C230.379 395.012 228.094 397.302 225.268 397.302ZM360.19 530.081C356.545 548.259 350.704 566.558 339.196 581.013H382.938C384.025 577.614 384.97 573.933 385.811 570.051C403.642 546.867 416.432 512.422 418.349 496.377C420.765 476.192 428.601 469.942 440.472 459.164C452.531 448.202 452.993 426.852 453.025 426.037L451.68 425.985C451.675 426.179 448.812 445.292 437.173 455.865C425.098 466.832 416.274 475.525 413.806 496.203C412.067 510.715 402.193 539.661 387.407 561.737C391.573 537.077 392.334 506.902 394.624 486.718C396.961 466.076 405.286 446.669 411.179 426.747C417.073 406.819 412.214 385.426 404.751 366.04C403.863 403.473 381.047 436.511 370.999 472.578C365.763 491.376 364.029 510.952 360.19 530.081Z" fill="#4A64B8"/>
<path d="M231.722 198.801L242.495 206.516L234.574 213.964L239.275 248.897L229.322 272.738L220.661 243.85L226.139 213.533L220.335 204.731L231.722 198.801ZM257.506 274.702C255.51 274.361 254.171 272.459 254.517 270.463C254.864 268.468 256.76 267.128 258.756 267.475C260.752 267.816 262.091 269.718 261.745 271.713C261.403 273.709 259.502 275.049 257.506 274.702ZM288.274 279.471C285.932 279.088 284.356 276.892 284.755 274.565C285.154 272.244 287.376 270.668 289.724 271.052C292.066 271.43 293.642 273.631 293.243 275.952C292.844 278.279 290.622 279.855 288.274 279.471ZM416.378 496.466C418.794 476.286 428.165 467.772 440.035 456.989C449.568 448.328 452.126 434.536 452.793 428.732C454.027 438.186 451.832 448.066 446.632 456.065C442.545 462.352 436.742 467.447 433.128 474.017C426.988 485.184 428.033 498.782 425.045 511.167C423.842 516.178 421.967 521.005 419.997 525.769C412.019 545.118 402.344 563.895 390.364 581.013H374.712C397.706 559.851 414.099 515.527 416.378 496.466ZM60.1654 395.038L61.4733 395.332C61.384 395.731 52.7859 435.807 81.5424 468.424C113.792 505.001 114.522 548.627 112.169 580.771L110.829 580.671C113.161 548.774 112.447 505.51 80.534 469.317C51.31 436.169 60.0709 395.443 60.1654 395.038ZM369.433 556.647C373.178 544.446 376.214 530.228 376.125 516.341C375.914 483.619 384.628 465.109 395.653 441.684C396.855 439.126 398.09 436.511 399.34 433.811C411.809 406.887 403.641 366.413 403.557 366.04L404.729 365.819C404.813 366.198 413.222 407.04 400.558 434.373C399.308 437.078 398.074 439.699 396.871 442.257C385.915 465.53 377.264 483.913 377.469 516.335C377.558 529.671 374.79 543.306 371.271 555.203L377.7 550.15C392.559 523.247 397.827 490.772 418.285 467.835C429.635 455.109 445.718 445.072 451.343 429.341C450.529 435.36 447.104 447.835 438.412 455.734C426.337 466.706 416.809 475.457 414.335 496.14C412.014 515.584 394.592 560.996 370.757 581.013H355.777C358.403 573.208 362.694 565.755 366.922 558.622L369.433 556.647ZM111.05 348.881C103.954 310.822 113.041 287.67 113.135 287.439L114.38 287.943C114.291 288.169 105.351 310.996 112.368 348.634C116.77 372.243 116.171 384.675 115.588 396.703C115.231 404.177 114.858 411.909 115.719 422.24C116.686 433.806 120.488 451.453 124.517 470.136C129.89 495.09 135.452 520.889 135.358 536.762C135.195 564.226 135.321 580.403 135.331 580.745L133.987 580.792C133.976 580.445 133.85 564.247 134.013 536.756C134.108 521.031 128.561 495.3 123.204 470.42C119.165 451.695 115.352 434.005 114.38 422.35C113.508 411.93 113.881 404.156 114.249 396.635C114.821 384.686 115.42 372.332 111.05 348.881ZM221.028 504.423L230.919 547.891C254.58 548.753 278.205 545.549 297.649 541.547C297.555 541.93 297.455 542.298 297.361 542.65C297.35 542.686 297.34 542.718 297.334 542.755C297.256 543.043 297.177 543.317 297.103 543.579C297.082 543.663 297.056 543.742 297.035 543.821C296.972 544.031 296.914 544.231 296.856 544.425C296.835 544.498 296.809 544.577 296.788 544.651C296.715 544.898 296.641 545.129 296.573 545.333C296.284 546.184 293.301 552.703 306.962 556.736C307.697 556.952 308.385 557.13 309.047 557.288C320.77 560.129 322.183 554.782 322.183 554.782C322.183 554.782 328.36 556.279 331.553 553.396C334.794 550.47 338.859 543.716 343.623 532.271C349.191 518.888 345.966 491.765 345.966 491.765C346.039 491.261 346.139 490.72 346.223 490.189L350.593 491.024C350.593 491.024 360.199 464.763 369.228 438.275C370.441 443.501 371.161 448.843 371.298 454.211C371.298 454.211 371.019 463.024 370.646 473.902C365.688 492.29 363.934 511.398 360.189 530.081C356.544 548.259 350.703 566.558 339.195 581.013H310.355C310.308 580.918 310.271 580.818 310.224 580.718H153.027L149.602 528.568C166.704 535.034 185.323 541.898 207.026 545.481L221.028 504.423ZM192.629 235.131C197.052 235.903 200.014 240.115 199.247 244.538C198.485 248.966 194.278 251.928 189.856 251.161C185.439 250.389 182.476 246.177 183.238 241.754C184.005 237.326 188.207 234.364 192.629 235.131ZM252.9 125.116C251.476 126.14 250.011 127.112 248.566 128.115C247.474 128.876 246.318 129.638 245.363 130.583C245.242 134.397 245.121 138.21 244.995 142.028C244.937 143.772 244.879 145.537 244.417 147.212C243.834 149.318 242.647 151.162 241.344 152.848C236.497 159.088 229.942 163.437 223.513 167.67C222.331 168.447 221.139 169.235 219.815 169.676C217.299 170.527 214.589 170.065 211.989 169.592C205.954 168.5 199.368 167.071 195.518 161.924C194.121 160.059 193.149 157.864 192.303 155.653C185.817 138.698 185.302 126.371 185.423 125.237C185.712 122.558 186.82 121.224 189.273 120.772C193.307 120.021 197.435 120.819 201.516 120.567C203.796 120.425 205.828 116.066 208.113 116.055C210.834 116.04 215.372 120.378 218.066 120.767C226.838 122.022 236.003 120.688 244.391 123.713L245.058 123.876C245.268 124.643 245.368 125.431 245.41 126.229C245.798 125.956 246.187 125.688 246.571 125.42C247.915 124.475 249.58 123.377 250.751 122.537C252.364 121.371 252.469 121.203 254.081 120.037C254.092 120.173 254.234 122.883 254.202 124.144C253.33 124.816 253.798 124.47 252.9 125.116ZM109.164 478.072C94.0587 436.621 90.1457 410.727 88.964 380.563C87.7402 349.296 79.7146 337.121 75.2974 332.74C88.5805 340.388 95.4296 356.539 98.1608 371.907C100.876 387.212 100.792 403.148 105.367 417.928C106.386 435.77 108.324 458.381 110.803 480.698C110.288 479.805 109.721 478.939 109.164 478.072ZM203.097 108.508C200.445 107.704 198.848 107.636 199.068 107.662C198.885 107.636 198.701 107.625 198.517 107.615C198.092 107.589 197.661 107.589 197.23 107.615C196.395 107.667 190.864 108.707 190.077 109.096C189.257 109.501 188.259 109.332 187.765 108.503C187.324 107.757 187.545 106.596 188.359 106.192C192.288 104.232 200.802 103.308 204.783 105.588C205.602 106.055 205.823 107.084 205.403 107.893C204.983 108.702 203.943 108.765 203.097 108.508ZM222.956 113.02C222.993 114.338 221.953 115.441 220.635 115.478C219.311 115.514 218.208 114.475 218.171 113.151C218.134 111.833 219.174 110.73 220.498 110.693C221.816 110.656 222.919 111.696 222.956 113.02ZM200.718 113.151C200.686 114.475 199.578 115.514 198.26 115.478C196.936 115.441 195.896 114.338 195.933 113.02C195.97 111.696 197.073 110.656 198.391 110.693C199.715 110.73 200.754 111.833 200.718 113.151ZM105.724 473.124C99.3636 464.92 91.254 458.26 84.1948 450.65C76.1903 426.253 72.8603 400.332 74.478 374.706C75.3814 360.41 77.6767 345.451 72.5137 332.163C75.3657 334.216 85.135 345.283 85.8651 381.566C87.2359 449.184 105.892 473.34 105.724 473.124ZM231.123 108.503C231.565 107.757 231.344 106.596 230.53 106.192C226.601 104.232 218.092 103.308 214.106 105.588C213.287 106.055 213.066 107.084 213.486 107.893C213.912 108.702 214.946 108.765 215.792 108.508C218.444 107.704 220.041 107.636 219.82 107.662C220.004 107.636 220.188 107.625 220.372 107.615C220.803 107.589 221.228 107.589 221.659 107.615C222.499 107.667 228.03 108.707 228.812 109.096C229.632 109.501 230.63 109.332 231.123 108.503Z" fill="#162942"/>
</g>
<defs>
<clipPath id="clip0">
<rect width="398" height="523.182" fill="white" transform="matrix(-1 0 0 1 453.129 57.8176)"/>
</clipPath>
</defs>
</svg>
